<?xml version="1.0" standalone="no"?>
<!DOCTYPE svg PUBLIC "-//W3C//DTD SVG 20010904//EN"
 "http://www.w3.org/TR/2001/REC-SVG-20010904/DTD/svg10.dtd">
<svg version="1.0" xmlns="http://www.w3.org/2000/svg"
 width="1280.000000pt" height="1244.000000pt" viewBox="0 0 1280.000000 1244.000000"
 preserveAspectRatio="xMidYMid meet">
<metadata>
Created by potrace 1.15, written by Peter Selinger 2001-2017
</metadata>
<g transform="translate(0.000000,1244.000000) scale(0.100000,-0.100000)"
fill="#ffeb3b" stroke="none">
<path d="M6234 12416 c-6 -16 64 -537 77 -572 14 -39 135 -50 172 -15 8 8 87
514 87 560 0 27 -2 28 -61 35 -34 3 -109 6 -166 6 -81 0 -105 -3 -109 -14z"/>
<path d="M7902 11763 c-239 -315 -292 -387 -292 -399 0 -28 41 -81 80 -103
l40 -22 227 168 c124 92 231 171 237 175 7 4 5 16 -4 34 -19 36 -201 224 -217
224 -7 0 -39 -35 -71 -77z"/>
<path d="M4755 11781 c-69 -55 -175 -165 -175 -180 0 -10 438 -347 465 -358
44 -16 150 91 127 128 -38 60 -336 454 -346 456 -6 2 -38 -19 -71 -46z"/>
<path d="M6233 11660 c-694 -57 -1254 -572 -1417 -1301 -131 -589 14 -1097
426 -1495 95 -92 253 -216 341 -267 60 -35 62 -61 8 -110 -21 -19 -47 -39 -57
-45 -18 -10 -19 -37 -27 -531 l-8 -521 24 -53 c13 -28 51 -82 85 -118 56 -61
72 -71 234 -148 l174 -83 33 -64 c40 -78 114 -146 191 -176 80 -32 232 -31
315 2 76 30 152 104 185 183 l25 57 141 45 c78 25 147 45 153 45 26 0 157 146
189 209 l32 64 0 529 0 528 -46 56 c-48 60 -70 103 -57 114 4 4 28 15 52 24
56 22 160 89 231 149 241 206 480 630 557 987 28 131 25 436 -5 588 -136 679
-617 1164 -1292 1302 -90 18 -317 42 -375 38 -11 0 -61 -4 -112 -8z"/>
<path d="M8498 10156 c-172 -25 -292 -46 -300 -54 -15 -15 -17 -147 -2 -161
10 -9 582 -96 589 -90 20 21 26 333 6 343 -3 1 -135 -16 -293 -38z"/>
<path d="M4001 10171 c-8 -21 -6 -319 2 -328 9 -8 578 95 590 106 18 18 26 86
15 126 -6 22 -13 42 -15 45 -3 2 -135 18 -295 35 -259 28 -291 29 -297 16z"/>
<path d="M4837 8636 c-126 -90 -233 -168 -239 -174 -8 -8 4 -31 40 -79 57 -77
179 -190 191 -177 19 20 341 434 352 452 10 16 9 25 -10 56 -20 31 -85 87
-101 86 -3 0 -108 -74 -233 -164z"/>
<path d="M7697 8770 c-34 -21 -81 -87 -74 -103 8 -20 338 -462 348 -465 25
-10 255 206 246 231 -6 18 -460 357 -477 356 -8 0 -28 -9 -43 -19z"/>
<path d="M2590 6132 c-79 -21 -101 -36 -174 -124 l-57 -67 -132 -42 c-73 -22
-147 -50 -166 -62 -46 -28 -61 -70 -61 -170 0 -148 34 -217 160 -325 98 -84
254 -162 340 -169 57 -6 64 -4 161 47 116 60 101 59 332 15 196 -38 248 -34
310 28 51 51 110 175 110 231 -1 23 -17 82 -36 131 -23 60 -37 116 -41 168 -8
93 -16 117 -58 170 -42 53 -92 73 -218 87 -66 7 -127 21 -165 36 -168 70 -196
74 -305 46z m249 -62 c75 -30 127 -43 217 -55 133 -18 162 -31 206 -92 26 -36
32 -55 39 -132 6 -65 18 -115 45 -183 26 -67 35 -103 31 -129 -7 -51 -56 -147
-98 -191 -35 -37 -37 -38 -110 -38 -41 0 -130 11 -199 25 -187 37 -213 35
-327 -25 -52 -27 -105 -50 -118 -50 -69 0 -243 86 -342 169 -116 98 -140 141
-150 272 -7 95 7 141 50 168 18 10 86 36 152 56 66 20 132 46 147 56 14 11 49
48 78 83 37 48 62 69 93 80 105 38 164 35 286 -14z"/>
<path d="M6290 6135 c-67 -15 -111 -41 -145 -85 -76 -97 -93 -109 -214 -147
-135 -42 -177 -61 -211 -98 -24 -25 -25 -32 -24 -143 0 -145 14 -181 105 -271
121 -120 284 -210 394 -218 57 -4 66 -2 158 46 55 28 111 51 125 51 15 0 83
-12 152 -25 165 -33 257 -41 303 -26 46 15 98 76 140 160 41 85 41 140 -2 241
-23 53 -35 103 -42 170 -7 68 -17 106 -34 135 -50 85 -94 108 -245 125 -82 9
-126 21 -200 52 -110 46 -170 53 -260 33z m242 -65 c78 -32 126 -44 215 -55
130 -16 164 -31 206 -92 23 -33 31 -58 41 -139 8 -61 23 -124 40 -164 45 -107
45 -147 2 -234 -20 -41 -52 -88 -71 -105 -33 -29 -41 -31 -109 -31 -40 0 -128
11 -196 25 -184 37 -211 35 -330 -27 l-99 -51 -57 12 c-31 7 -98 34 -148 59
-72 37 -110 65 -183 137 -105 104 -116 127 -117 266 -1 74 2 90 19 109 27 30
76 54 165 80 145 42 156 48 235 135 64 71 82 84 127 98 92 27 148 22 260 -23z"/>
<path d="M10025 6143 c-11 -3 -60 -22 -110 -43 -69 -29 -114 -41 -193 -49
-126 -15 -158 -25 -200 -65 -58 -54 -73 -88 -82 -188 -7 -68 -18 -113 -41
-168 -45 -104 -45 -172 -1 -258 42 -81 94 -138 139 -153 46 -15 139 -7 303 26
69 13 137 25 152 25 15 0 70 -22 122 -50 118 -62 155 -64 271 -17 109 44 208
112 293 201 67 71 71 78 87 151 22 98 16 205 -12 243 -29 39 -83 67 -192 97
-124 35 -154 53 -223 135 -47 55 -68 72 -112 89 -56 21 -165 34 -201 24z m167
-49 c46 -13 66 -26 99 -63 119 -133 111 -127 250 -167 180 -51 201 -72 201
-192 -1 -126 -15 -165 -90 -244 -103 -109 -267 -206 -379 -224 -37 -6 -52 -1
-137 45 -114 61 -139 63 -326 26 -69 -13 -158 -25 -199 -25 l-74 0 -41 43
c-50 52 -97 146 -98 195 0 20 15 78 34 127 25 64 37 115 42 175 8 87 18 112
65 164 35 38 56 45 190 62 90 12 135 24 205 54 104 45 163 50 258 24z"/>
<path d="M1851 4595 c-29 -9 -58 -29 -85 -59 -34 -38 -53 -48 -113 -66 -86
-25 -113 -52 -113 -114 0 -102 52 -178 161 -236 98 -52 123 -55 197 -19 l63
30 76 -15 c41 -9 98 -16 125 -16 43 0 54 4 83 33 45 45 63 106 46 160 -11 37
-25 98 -37 165 -3 12 -17 36 -32 53 -23 25 -39 32 -107 44 -44 7 -104 23 -133
34 -60 24 -71 25 -131 6z m138 -45 c25 -12 76 -25 115 -31 87 -12 113 -33 121
-98 3 -25 15 -74 26 -108 l21 -61 -20 -45 c-11 -25 -32 -53 -47 -63 -25 -16
-32 -16 -123 0 -126 21 -149 20 -197 -9 -22 -14 -50 -25 -61 -25 -36 0 -157
67 -199 109 -36 38 -39 46 -43 106 -3 41 0 70 7 79 7 8 44 24 84 36 58 18 80
31 115 66 23 25 52 49 65 54 37 15 90 11 136 -10z"/>
<path d="M6335 4599 c-28 -7 -53 -23 -85 -57 -38 -41 -57 -52 -118 -71 -97
-29 -112 -45 -112 -121 0 -79 16 -115 77 -172 55 -51 106 -80 171 -98 41 -10
48 -9 103 20 l60 31 83 -15 c130 -25 172 -22 206 14 16 17 36 51 46 77 17 44
17 47 -4 112 -11 36 -24 85 -27 109 -11 83 -48 114 -150 127 -33 4 -86 18
-117 31 -62 26 -72 27 -133 13z m131 -49 c25 -11 79 -25 118 -30 59 -8 75 -15
93 -38 14 -16 23 -41 23 -60 0 -18 9 -58 20 -89 11 -32 20 -68 20 -82 0 -36
-47 -110 -74 -117 -13 -3 -62 1 -108 10 -114 22 -146 20 -193 -9 -22 -13 -51
-24 -65 -25 -66 0 -208 100 -236 167 -19 44 -18 108 2 127 8 9 48 26 87 38 59
18 80 30 117 69 25 26 54 50 65 52 44 10 86 6 131 -13z"/>
<path d="M10780 4585 c-30 -13 -82 -27 -115 -30 -103 -12 -138 -42 -150 -131
-4 -27 -16 -76 -28 -110 -20 -60 -20 -62 -3 -107 10 -26 30 -60 46 -77 24 -25
35 -30 77 -30 26 0 84 7 128 15 l80 16 66 -31 c63 -29 67 -30 112 -16 62 19
123 55 175 106 53 52 62 74 62 156 0 80 -11 92 -115 127 -63 22 -84 34 -116
71 -32 36 -49 47 -90 55 -65 14 -65 14 -129 -14z m199 -72 c39 -42 57 -53 118
-71 97 -30 107 -41 100 -115 -5 -55 -9 -64 -54 -109 -48 -49 -149 -108 -185
-108 -10 0 -41 11 -68 25 -58 29 -87 31 -197 9 -103 -21 -126 -15 -158 39 -30
53 -31 76 -5 145 11 29 20 70 20 91 0 50 34 88 86 96 84 13 140 27 164 41 16
9 43 13 79 11 50 -4 57 -8 100 -54z"/>
<path d="M1250 3360 c-99 -24 -222 -73 -275 -110 -65 -45 -151 -143 -184 -212
-35 -72 -51 -188 -51 -364 0 -104 0 -106 -22 -101 -54 14 -83 -40 -76 -141 7
-92 26 -124 96 -162 64 -34 80 -55 183 -240 76 -136 151 -217 254 -273 85 -46
172 -77 219 -77 70 0 202 72 319 173 70 60 99 101 176 247 52 99 66 117 127
166 93 74 104 93 104 179 0 87 -16 115 -65 115 -32 0 -34 1 -30 33 21 167 9
349 -26 419 -63 123 -187 261 -273 303 -67 32 -236 65 -328 64 -40 0 -107 -9
-148 -19z"/>
<path d="M6254 3356 c-190 -50 -289 -107 -382 -219 -90 -109 -111 -191 -112
-430 l0 -139 -29 7 c-24 5 -33 1 -51 -22 -19 -25 -21 -37 -18 -115 4 -103 18
-129 96 -171 62 -33 81 -58 157 -197 108 -197 154 -247 297 -324 146 -79 223
-83 338 -19 175 97 266 194 363 388 40 80 54 98 122 154 46 37 82 76 91 97 18
43 18 115 0 159 -13 30 -20 35 -48 35 l-33 0 0 197 0 198 -29 55 c-66 128
-189 265 -269 304 -67 31 -191 57 -297 62 -89 4 -119 1 -196 -20z"/>
<path d="M11295 3369 c-71 -17 -199 -61 -255 -89 -72 -36 -140 -97 -195 -175
-67 -93 -75 -125 -88 -342 -11 -187 -11 -192 -32 -187 -14 3 -29 -3 -45 -21
-22 -24 -25 -35 -24 -103 2 -111 18 -144 92 -181 66 -33 86 -59 185 -236 30
-55 69 -119 86 -142 61 -84 260 -199 362 -210 67 -6 129 16 229 82 148 98 224
191 325 395 21 41 45 68 96 108 85 65 103 97 103 179 -1 75 -21 113 -63 113
l-28 0 1 193 c1 216 1 215 -81 342 -61 94 -159 190 -225 220 -113 51 -336 78
-443 54z"/>
<path d="M1293 1527 l-82 -95 50 -21 50 -20 -6 -43 c-3 -24 -21 -182 -40 -352
l-34 -310 34 -55 c19 -31 51 -81 72 -112 l38 -57 79 110 80 110 -43 322 c-24
176 -46 336 -48 353 -5 31 -3 34 41 54 l46 20 -45 57 c-25 31 -60 74 -77 95
l-33 38 -82 -94z"/>
<path d="M6315 1532 c-42 -50 -77 -94 -77 -98 0 -4 20 -15 44 -25 35 -14 43
-21 41 -41 -1 -12 -18 -172 -38 -354 l-36 -331 68 -106 c37 -59 71 -107 75
-107 4 0 41 48 83 106 l76 106 -45 339 c-25 186 -46 346 -46 354 0 8 20 25 44
37 l45 21 -66 81 c-37 45 -72 87 -78 94 -10 11 -27 -4 -90 -76z"/>
<path d="M11315 1538 c-96 -111 -94 -105 -41 -128 25 -11 46 -24 46 -30 0 -5
-15 -150 -34 -322 -19 -172 -36 -327 -38 -344 -2 -25 12 -55 66 -138 37 -58
71 -106 75 -106 4 0 41 48 83 108 l75 107 -43 315 c-23 173 -45 332 -48 352
-6 36 -5 38 40 57 53 24 57 11 -41 135 -33 41 -62 75 -65 75 -3 0 -36 -36 -75
-81z"/>
<path d="M725 1522 c-162 -51 -304 -108 -361 -146 -92 -60 -159 -193 -234
-458 -51 -181 -91 -458 -116 -815 l-7 -93 1387 0 c806 0 1386 4 1386 9 0 26
-83 638 -100 734 -33 192 -107 424 -166 519 -37 59 -73 86 -179 138 -93 46
-385 150 -419 150 -10 0 -19 -16 -26 -42 -39 -150 -126 -455 -151 -525 -75
-211 -340 -836 -351 -825 -11 11 -170 360 -264 579 -83 193 -121 312 -189 588
-59 241 -53 225 -73 225 -9 -1 -71 -18 -137 -38z"/>
<path d="M5670 1501 c-271 -90 -348 -137 -413 -251 -64 -113 -150 -395 -181
-595 -13 -86 -24 -188 -62 -582 l-6 -63 1389 0 1389 0 -8 63 c-87 664 -110
797 -163 967 -31 97 -83 215 -116 261 -45 63 -178 130 -434 215 -71 24 -136
44 -145 44 -12 0 -21 -20 -35 -72 -59 -235 -143 -504 -199 -644 -97 -241 -277
-668 -286 -677 -13 -14 -310 649 -365 818 -19 55 -60 207 -92 337 -52 212 -60
238 -78 238 -11 -1 -99 -27 -195 -59z"/>
<path d="M10830 1550 c-14 -4 -83 -27 -155 -50 -262 -84 -357 -146 -420 -271
-64 -126 -140 -382 -169 -569 -13 -82 -38 -318 -61 -577 l-7 -73 1386 0 1386
0 0 25 c0 32 -64 513 -90 675 -47 289 -143 558 -224 627 -48 40 -215 116 -380
172 -82 28 -156 51 -166 51 -13 0 -25 -34 -59 -162 -74 -279 -119 -415 -216
-653 -148 -363 -241 -576 -250 -577 -18 0 -306 653 -361 817 -33 101 -144 529
-144 559 0 18 -28 20 -70 6z"/>
</g>
</svg>
